<mxfile host="app.diagrams.net" modified="2023-08-10T08:49:15.059Z" agent="Mozilla/5.0 (Macintosh; Intel Mac OS X 10_15_7) AppleWebKit/605.1.15 (KHTML, like Gecko) Version/16.5 Safari/605.1.15" etag="oGfW9DVkqMHlRb4uWNG3" version="21.6.6" type="device">
  <diagram name="Page-1" id="74b105a0-9070-1c63-61bc-23e55f88626e">
    <mxGraphModel dx="1000" dy="718" grid="1" gridSize="10" guides="1" tooltips="1" connect="1" arrows="1" fold="1" page="1" pageScale="1.5" pageWidth="1169" pageHeight="826" background="none" math="0" shadow="0">
      <root>
        <mxCell id="0" style=";html=1;" />
        <mxCell id="1" style=";html=1;" parent="0" />
        <mxCell id="Ig4eFKjfvoejCMDQEeru-3" value="" style="edgeStyle=orthogonalEdgeStyle;rounded=0;orthogonalLoop=1;jettySize=auto;html=1;" edge="1" parent="1" source="Ig4eFKjfvoejCMDQEeru-1" target="Ig4eFKjfvoejCMDQEeru-2">
          <mxGeometry relative="1" as="geometry" />
        </mxCell>
        <mxCell id="Ig4eFKjfvoejCMDQEeru-1" value="UI" style="shape=process;whiteSpace=wrap;html=1;backgroundOutline=1;" vertex="1" parent="1">
          <mxGeometry x="730" y="50" width="120" height="60" as="geometry" />
        </mxCell>
        <mxCell id="Ig4eFKjfvoejCMDQEeru-18" style="edgeStyle=orthogonalEdgeStyle;rounded=0;orthogonalLoop=1;jettySize=auto;html=1;entryX=0.446;entryY=-0.025;entryDx=0;entryDy=0;entryPerimeter=0;" edge="1" parent="1" source="Ig4eFKjfvoejCMDQEeru-2" target="Ig4eFKjfvoejCMDQEeru-4">
          <mxGeometry relative="1" as="geometry" />
        </mxCell>
        <mxCell id="Ig4eFKjfvoejCMDQEeru-19" style="edgeStyle=orthogonalEdgeStyle;rounded=0;orthogonalLoop=1;jettySize=auto;html=1;entryX=0.5;entryY=0;entryDx=0;entryDy=0;" edge="1" parent="1" source="Ig4eFKjfvoejCMDQEeru-2" target="Ig4eFKjfvoejCMDQEeru-10">
          <mxGeometry relative="1" as="geometry" />
        </mxCell>
        <mxCell id="Ig4eFKjfvoejCMDQEeru-20" style="edgeStyle=orthogonalEdgeStyle;rounded=0;orthogonalLoop=1;jettySize=auto;html=1;entryX=0.5;entryY=0;entryDx=0;entryDy=0;" edge="1" parent="1" source="Ig4eFKjfvoejCMDQEeru-2" target="Ig4eFKjfvoejCMDQEeru-16">
          <mxGeometry relative="1" as="geometry" />
        </mxCell>
        <mxCell id="Ig4eFKjfvoejCMDQEeru-2" value="GW" style="shape=process;whiteSpace=wrap;html=1;backgroundOutline=1;" vertex="1" parent="1">
          <mxGeometry x="730" y="190" width="120" height="60" as="geometry" />
        </mxCell>
        <mxCell id="Ig4eFKjfvoejCMDQEeru-15" style="edgeStyle=orthogonalEdgeStyle;rounded=0;orthogonalLoop=1;jettySize=auto;html=1;entryX=0.5;entryY=1;entryDx=0;entryDy=0;entryPerimeter=0;" edge="1" parent="1" source="Ig4eFKjfvoejCMDQEeru-4" target="Ig4eFKjfvoejCMDQEeru-5">
          <mxGeometry relative="1" as="geometry">
            <mxPoint x="350" y="610" as="targetPoint" />
            <Array as="points">
              <mxPoint x="330" y="610" />
              <mxPoint x="790" y="610" />
            </Array>
          </mxGeometry>
        </mxCell>
        <mxCell id="Ig4eFKjfvoejCMDQEeru-4" value="Inventory" style="shape=process;whiteSpace=wrap;html=1;backgroundOutline=1;" vertex="1" parent="1">
          <mxGeometry x="290" y="320" width="120" height="60" as="geometry" />
        </mxCell>
        <mxCell id="Ig4eFKjfvoejCMDQEeru-5" value="mongoldb" style="shape=cylinder3;whiteSpace=wrap;html=1;boundedLbl=1;backgroundOutline=1;size=15;" vertex="1" parent="1">
          <mxGeometry x="760" y="520" width="60" height="80" as="geometry" />
        </mxCell>
        <mxCell id="Ig4eFKjfvoejCMDQEeru-14" style="edgeStyle=orthogonalEdgeStyle;rounded=0;orthogonalLoop=1;jettySize=auto;html=1;entryX=0;entryY=0.5;entryDx=0;entryDy=0;entryPerimeter=0;" edge="1" parent="1" source="Ig4eFKjfvoejCMDQEeru-10" target="Ig4eFKjfvoejCMDQEeru-5">
          <mxGeometry relative="1" as="geometry">
            <mxPoint x="640" y="560" as="targetPoint" />
            <Array as="points">
              <mxPoint x="570" y="560" />
            </Array>
          </mxGeometry>
        </mxCell>
        <mxCell id="Ig4eFKjfvoejCMDQEeru-10" value="Inventoryqs" style="shape=process;whiteSpace=wrap;html=1;backgroundOutline=1;" vertex="1" parent="1">
          <mxGeometry x="510" y="320" width="120" height="60" as="geometry" />
        </mxCell>
        <mxCell id="Ig4eFKjfvoejCMDQEeru-17" style="edgeStyle=orthogonalEdgeStyle;rounded=0;orthogonalLoop=1;jettySize=auto;html=1;entryX=0.5;entryY=0;entryDx=0;entryDy=0;entryPerimeter=0;" edge="1" parent="1" source="Ig4eFKjfvoejCMDQEeru-16" target="Ig4eFKjfvoejCMDQEeru-5">
          <mxGeometry relative="1" as="geometry" />
        </mxCell>
        <mxCell id="Ig4eFKjfvoejCMDQEeru-16" value="order" style="shape=process;whiteSpace=wrap;html=1;backgroundOutline=1;" vertex="1" parent="1">
          <mxGeometry x="730" y="320" width="120" height="60" as="geometry" />
        </mxCell>
      </root>
    </mxGraphModel>
  </diagram>
</mxfile>
